<?xml version="1.0" standalone="no"?>
<!DOCTYPE svg PUBLIC "-//W3C//DTD SVG 20010904//EN"
 "http://www.w3.org/TR/2001/REC-SVG-20010904/DTD/svg10.dtd">
<svg version="1.0" xmlns="http://www.w3.org/2000/svg"
 width="1200.000000pt" height="1198.000000pt" viewBox="0 0 1200.000000 1198.000000"
 preserveAspectRatio="xMidYMid meet">

<g transform="translate(0.000000,1198.000000) scale(0.100000,-0.100000)"
fill="#000000" stroke="none">
<path d="M5320 11034 c-745 -64 -1336 -221 -1925 -509 -748 -367 -1276 -832
-1711 -1508 -571 -889 -829 -1998 -698 -3007 50 -387 163 -738 377 -1165 129
-258 223 -422 611 -1060 293 -482 414 -890 495 -1675 64 -621 65 -632 64 -870
-2 -286 -53 -907 -100 -1202 l-6 -38 522 0 521 0 0 2228 0 2229 -117 16 c-273
36 -523 166 -698 362 -65 72 -69 75 -104 69 -59 -9 -263 14 -357 41 -544 158
-847 686 -688 1197 14 46 48 125 75 175 l50 93 -52 76 c-104 154 -179 335
-216 521 -26 134 -23 387 6 518 54 237 150 429 312 620 61 72 183 186 258 239
25 18 31 30 36 81 30 283 107 502 252 708 73 105 244 276 352 352 246 172 538
270 849 282 l143 6 62 65 c390 407 985 572 1530 425 73 -20 148 -35 167 -35
19 0 94 20 165 46 167 58 273 77 470 83 129 4 184 1 280 -15 l120 -20 47 24
c119 60 314 104 463 104 87 0 229 -23 321 -51 209 -65 412 -217 531 -398 31
-48 60 -90 63 -94 4 -5 52 -12 107 -17 337 -29 579 -184 737 -472 37 -67 37
-67 94 -78 252 -49 462 -203 566 -416 51 -105 67 -181 67 -329 l0 -125 78 -78
c199 -197 290 -426 278 -695 -6 -141 -24 -220 -77 -333 -120 -261 -318 -432
-615 -534 l-120 -41 -1 -132 c0 -136 -7 -173 -51 -291 -68 -182 -243 -362
-438 -451 -83 -38 -223 -71 -331 -79 l-90 -7 -68 -64 c-131 -123 -290 -180
-481 -172 -128 5 -208 28 -303 84 -75 45 -120 87 -230 216 -46 53 -87 97 -90
97 -4 0 -36 -67 -71 -150 -127 -299 -265 -482 -488 -649 -283 -213 -588 -313
-948 -313 -240 0 -446 42 -648 133 -48 21 -89 39 -92 39 -3 0 -5 -1145 -5
-2545 l0 -2545 1569 0 1568 0 17 88 c61 306 155 550 254 658 40 43 134 99 225
135 173 67 322 80 800 72 395 -7 472 -2 647 44 271 70 522 275 590 483 23 68
25 91 25 245 -1 183 -4 206 -76 499 -21 88 -39 175 -39 194 0 58 29 99 127
183 118 101 153 153 153 226 0 67 -19 112 -77 186 -25 32 -42 62 -37 66 5 4
45 34 88 66 83 63 156 150 176 211 25 75 9 147 -65 299 -58 118 -70 150 -73
203 l-4 62 55 25 c31 14 109 39 174 56 330 84 453 151 520 283 52 102 37 239
-43 398 -57 113 -382 586 -669 973 -202 272 -295 425 -339 557 -46 137 -32
206 77 386 109 178 130 267 102 418 -31 170 -112 430 -277 894 -154 433 -209
596 -249 735 -123 433 -320 766 -644 1091 -126 126 -141 140 -270 245 -648
528 -1643 918 -2640 1035 -133 15 -793 28 -915 18z"/>
<path d="M6760 10364 c-78 -10 -210 -49 -294 -86 l-89 -39 -129 21 c-284 45
-553 13 -821 -97 l-88 -36 -117 36 c-341 106 -681 96 -996 -30 -198 -78 -335
-171 -498 -335 l-107 -108 -117 0 c-665 0 -1225 -416 -1378 -1025 -8 -33 -21
-118 -28 -189 l-12 -128 -119 -95 c-296 -238 -460 -531 -498 -888 -31 -294 49
-580 237 -852 35 -51 64 -95 64 -98 0 -2 -27 -53 -60 -112 -75 -136 -106 -226
-120 -352 -19 -159 8 -302 86 -451 124 -238 352 -403 639 -461 33 -6 121 -12
196 -13 l136 -1 49 -55 c116 -133 215 -215 331 -273 120 -61 272 -104 383
-109 l55 -3 3 222 2 221 -57 28 c-32 14 -71 31 -88 37 -18 6 -208 13 -475 17
-493 8 -495 8 -640 78 -94 46 -229 176 -277 267 -66 127 -76 177 -81 428 l-4
227 56 0 56 0 0 -200 c0 -224 7 -274 56 -377 61 -128 172 -228 312 -282 l67
-25 450 -6 c434 -6 452 -7 520 -29 39 -13 75 -27 81 -32 6 -5 14 -6 17 -2 4 3
7 175 7 382 0 401 5 449 52 556 60 134 186 267 310 327 121 59 183 69 422 71
116 1 210 5 209 10 -2 4 -3 263 -3 576 l0 570 -582 4 c-556 3 -586 4 -644 24
-218 73 -376 229 -445 438 -21 63 -23 93 -27 308 l-4 237 56 0 56 0 0 -213 c0
-156 4 -228 15 -270 46 -176 174 -316 353 -386 l67 -26 582 -3 582 -3 7 38
c18 98 86 233 158 311 56 61 136 119 212 153 127 58 140 59 734 59 601 0 626
2 748 62 94 46 208 159 252 253 35 76 59 186 60 278 l0 57 50 0 50 0 0 -87 c0
-166 -63 -329 -172 -448 -72 -79 -153 -134 -261 -177 l-82 -33 -610 -5 c-586
-6 -612 -7 -665 -27 -72 -26 -136 -59 -159 -81 -84 -78 -105 -100 -134 -145
-36 -55 -77 -154 -77 -187 0 -18 13 -19 293 -22 286 -4 294 -4 372 -31 152
-51 283 -157 365 -296 58 -100 81 -186 87 -326 6 -150 -11 -238 -68 -355 -56
-115 -179 -238 -289 -292 -131 -64 -164 -69 -482 -75 l-288 -6 0 -413 0 -414
346 0 c282 0 358 3 417 16 192 44 344 178 411 363 18 52 20 90 26 506 6 432 7
453 29 520 68 208 227 369 438 442 43 15 147 18 978 23 l930 6 63 23 c89 33
144 65 207 122 108 99 159 205 177 367 l11 102 50 0 50 0 -6 -102 c-8 -176
-66 -306 -189 -427 -78 -77 -148 -122 -250 -159 l-73 -27 -925 -5 c-858 -5
-929 -7 -980 -24 -147 -48 -267 -146 -333 -273 -62 -119 -67 -158 -67 -598 0
-441 -5 -478 -69 -610 -64 -132 -165 -234 -295 -299 -134 -67 -150 -69 -571
-74 l-380 -3 3 -108 3 -107 97 -43 c340 -152 657 -185 991 -105 319 76 613
266 795 514 81 110 121 187 226 430 56 129 103 236 105 238 1 2 70 -75 151
-170 82 -95 167 -190 189 -210 88 -82 214 -128 350 -128 156 0 275 50 393 166
l73 72 112 7 c62 4 145 16 186 26 250 64 448 248 523 489 21 68 23 91 21 242
l-3 167 148 46 c157 50 215 76 302 135 376 255 480 731 243 1105 -25 39 -89
113 -145 166 l-99 97 11 102 c28 251 -68 453 -281 593 -70 47 -164 82 -278
103 l-92 18 -52 99 c-112 212 -260 336 -476 398 -55 16 -237 38 -317 39 -16 0
-35 23 -79 96 -165 278 -436 438 -755 448 -63 3 -131 2 -150 0z m275 -139
c105 -27 217 -89 287 -159 85 -85 124 -154 146 -255 16 -75 21 -84 47 -96 17
-7 38 -19 48 -27 18 -13 16 -16 -25 -50 -56 -46 -98 -129 -98 -195 0 -56 33
-133 77 -180 36 -38 32 -43 -45 -68 -77 -25 -163 -17 -240 25 -56 30 -62 31
-88 17 -65 -33 -168 -52 -284 -51 -63 0 -123 3 -132 7 -15 5 -18 20 -18 90 0
241 -137 435 -361 511 -86 29 -87 33 -39 131 61 125 183 228 331 279 99 34 98
34 224 35 70 1 133 -5 170 -14z m-1995 -126 c206 -33 356 -207 336 -390 -16
-154 -133 -280 -301 -325 -54 -15 -124 -18 -173 -8 l-31 6 -3 197 c-3 195 -3
198 -30 238 -32 48 -74 70 -163 82 -37 6 -69 12 -71 14 -3 2 16 27 42 55 68
77 195 134 309 141 11 0 49 -4 85 -10z m1339 -404 c95 -50 162 -119 209 -214
36 -74 37 -79 37 -186 -1 -123 -16 -174 -76 -261 -28 -40 -36 -65 -45 -133
-14 -102 -72 -226 -133 -286 l-41 -39 6 60 c6 58 -7 154 -28 199 -9 20 -13 21
-65 11 -185 -33 -392 80 -475 261 -43 94 -51 227 -19 321 50 147 153 248 306
299 26 8 76 12 145 10 100 -3 109 -5 179 -42z m1661 -67 c74 -33 124 -79 144
-130 10 -23 39 -60 67 -86 49 -44 79 -88 79 -115 0 -12 -8 -10 -40 6 -23 11
-61 22 -85 25 -38 4 -49 0 -77 -23 -63 -54 -134 -77 -243 -82 -84 -4 -110 -2
-163 16 -130 44 -196 111 -196 200 0 86 60 153 177 197 54 21 76 24 172 21 92
-3 119 -7 165 -29z m-4356 -112 c186 -48 343 -161 409 -295 29 -60 32 -75 32
-156 0 -81 -3 -97 -32 -158 -33 -70 -120 -167 -175 -196 -25 -13 -28 -11 -89
50 -107 107 -232 159 -379 159 -141 0 -254 -46 -360 -147 l-68 -63 -49 39
c-56 44 -127 143 -144 201 -10 33 -17 39 -48 45 -68 13 -138 54 -196 117 -31
33 -54 63 -51 65 3 3 19 0 37 -6 45 -16 157 -14 215 4 43 13 52 21 68 57 27
59 148 177 221 215 179 93 410 119 609 69z m4635 -378 c-30 -29 -64 -72 -76
-96 l-22 -42 44 -46 c24 -25 59 -74 76 -110 27 -54 33 -79 36 -157 4 -77 2
-103 -17 -156 -39 -117 -114 -200 -229 -255 -61 -29 -74 -31 -171 -31 -97 0
-110 2 -171 31 -196 93 -293 303 -233 505 33 112 118 210 229 265 53 25 73 29
169 33 105 3 110 4 152 36 57 44 141 72 223 74 l44 1 -54 -52z m-923 -52 c54
-14 147 -60 165 -82 7 -9 0 -27 -24 -66 -114 -180 -110 -397 11 -572 26 -38
26 -38 7 -53 -45 -33 -144 -74 -199 -83 -79 -13 -191 3 -258 36 -24 12 -27 11
-43 -12 -22 -34 -72 -78 -116 -103 l-37 -21 19 61 c31 100 26 166 -22 272 -83
186 -57 364 74 502 53 55 167 118 232 128 64 9 142 6 191 -7z m-1891 -51 c180
-47 295 -168 295 -312 0 -34 -4 -73 -10 -87 -8 -22 -5 -29 28 -56 20 -16 57
-38 82 -47 67 -24 68 -30 9 -47 -62 -19 -143 -21 -188 -5 -28 10 -39 8 -89
-19 -83 -44 -163 -64 -256 -64 -90 -1 -171 15 -227 43 l-36 18 31 63 c29 57
31 70 31 163 -1 90 -3 105 -29 155 -16 30 -40 70 -54 88 -14 18 -23 34 -21 36
14 14 115 58 160 70 72 19 201 20 274 1z m-571 -89 c60 -29 104 -74 138 -139
32 -61 32 -184 0 -247 -52 -106 -151 -170 -269 -174 -39 -1 -81 -9 -99 -19
-38 -19 -90 -70 -115 -110 l-17 -29 -7 32 c-8 38 1 110 22 162 15 37 15 38
-20 80 -79 98 -82 243 -8 352 81 118 242 157 375 92z m-1377 -120 c243 -65
389 -305 328 -540 l-15 -59 29 -46 c49 -75 71 -187 55 -270 l-7 -32 -32 49
c-35 52 -93 107 -131 124 -19 9 -29 7 -57 -15 -86 -66 -207 -103 -303 -92
-311 33 -496 327 -386 613 23 60 90 151 130 179 143 96 261 123 389 89z m3908
-676 c31 -12 58 -37 74 -68 l12 -23 26 21 c34 27 102 27 136 0 31 -24 50 -78
41 -114 -5 -23 -3 -26 18 -26 49 0 98 -59 98 -119 0 -38 -41 -88 -81 -96 -27
-6 -29 -9 -23 -39 16 -91 -77 -164 -157 -122 -24 12 -27 11 -45 -15 -22 -33
-70 -59 -109 -59 -32 0 -61 14 -95 46 -23 21 -29 22 -56 12 -44 -16 -97 -3
-133 34 l-30 31 -48 -23 c-32 -16 -72 -25 -118 -28 l-70 -3 48 41 c26 23 57
60 68 81 20 39 20 40 1 67 -44 62 -34 133 27 184 17 15 31 36 31 48 0 36 27
86 56 107 43 30 78 35 125 19 41 -14 43 -14 61 10 29 36 95 52 143 34z m-777
-36 c22 -25 22 -29 22 -292 0 -301 -1 -303 -71 -322 -41 -11 -611 -14 -683 -3
-49 7 -76 48 -76 114 l0 46 56 7 c69 8 106 26 136 68 21 31 23 44 26 196 2 97
8 162 14 162 15 0 378 41 438 50 76 11 111 4 138 -26z m2589 -10 c166 -82 212
-292 93 -428 l-33 -37 -48 54 c-95 106 -211 155 -341 143 l-68 -6 0 32 c0 110
75 212 185 255 16 6 59 12 96 12 51 1 76 -5 116 -25z m-161 -379 c193 -85 240
-348 90 -498 -70 -70 -184 -107 -272 -87 -39 9 -47 7 -91 -20 -42 -26 -143
-56 -143 -43 0 3 16 23 35 46 52 61 54 79 11 128 -49 58 -69 123 -64 212 7
142 100 254 238 284 67 14 129 7 196 -22z m-7246 -200 l33 -48 18 36 c35 66
119 117 195 117 80 0 172 -59 201 -127 15 -36 24 -40 45 -20 24 24 88 39 144
35 72 -6 139 -49 179 -113 27 -43 30 -57 29 -125 l-1 -76 39 -12 c75 -24 134
-102 145 -191 16 -138 -81 -253 -226 -265 -42 -3 -45 -5 -62 -50 -39 -105
-112 -158 -218 -159 -65 0 -140 31 -172 72 l-20 25 -29 -36 c-43 -52 -110 -82
-185 -82 -91 1 -164 45 -208 129 -28 53 -31 168 -4 208 23 36 22 43 -13 57
-44 18 -107 92 -120 142 -26 95 11 197 92 257 42 31 45 37 35 55 -7 12 -12 65
-12 126 0 89 3 112 23 155 l24 50 17 -56 c10 -31 33 -77 51 -104z m2159 -33
c19 -9 44 -30 55 -45 20 -27 21 -41 21 -317 0 -276 -1 -290 -21 -316 -46 -62
-62 -67 -204 -68 l-131 -1 -5 -25 c-28 -124 -92 -225 -175 -274 -32 -19 -32
-19 -25 0 21 53 28 135 16 201 -6 38 -14 74 -19 81 -5 8 -64 12 -207 14 -190
3 -200 4 -232 26 -60 43 -62 52 -62 362 -1 256 1 284 17 313 39 67 41 67 513
67 385 0 428 -2 459 -18z m3646 -283 c28 -11 72 -36 100 -57 l49 -39 46 47
c35 36 58 50 97 59 76 19 149 -2 199 -56 l23 -25 28 20 c121 86 317 32 383
-105 28 -58 32 -159 7 -215 -13 -31 -13 -39 -2 -48 27 -23 58 -139 52 -196
-15 -141 -130 -270 -263 -291 -25 -4 -36 -13 -50 -44 -19 -44 -88 -95 -141
-105 -53 -10 -117 4 -159 35 -32 24 -42 27 -68 20 -85 -24 -208 0 -280 55 -84
64 -129 189 -107 294 7 31 19 67 28 80 13 21 12 26 -17 59 -40 45 -50 72 -50
132 0 65 21 112 70 153 22 19 40 43 40 52 0 30 -50 125 -86 163 -19 19 -34 38
-34 40 0 9 85 -9 135 -28z m-328 -377 c28 -55 30 -57 73 -60 44 -3 45 -4 75
-66 30 -60 31 -64 18 -112 -9 -30 -12 -79 -10 -125 11 -175 144 -318 325 -350
69 -12 71 -18 29 -68 -42 -51 -127 -113 -190 -139 -76 -31 -208 -41 -288 -22
-219 52 -375 256 -356 465 11 120 65 230 142 294 l40 33 1 82 c0 88 18 151 62
220 l26 41 12 -68 c7 -37 26 -93 41 -125z m-4116 -238 l34 -35 3 -377 c2 -250
0 -389 -8 -414 -13 -45 -50 -76 -101 -84 -35 -6 -40 -10 -50 -48 -11 -41 -8
-134 7 -170 6 -16 4 -17 -12 -8 -54 29 -121 123 -137 193 -6 23 -14 28 -53 34
-29 4 -57 17 -77 35 l-32 28 0 407 0 407 37 34 38 34 158 0 158 0 35 -36z
m2069 -319 c46 -24 53 -48 58 -202 4 -134 6 -142 26 -147 34 -9 163 -7 190 4
38 14 33 -3 -16 -56 -46 -50 -108 -90 -161 -105 -25 -7 -38 -18 -47 -39 -7
-17 -24 -40 -38 -50 -23 -19 -41 -20 -276 -20 -265 1 -265 1 -299 50 -15 21
-17 55 -17 268 l0 244 34 34 34 34 241 0 c196 0 248 -3 271 -15z m-2628 -81
l47 -18 3 -215 c3 -205 4 -218 26 -257 23 -39 92 -94 119 -94 10 0 11 -8 6
-27 -10 -36 -10 -200 0 -235 12 -45 -10 -34 -84 42 l-68 69 -43 -19 c-66 -29
-161 -35 -236 -16 -130 33 -212 98 -269 212 -66 135 -56 287 28 410 100 146
305 210 471 148z m3723 -95 c52 -25 65 -67 65 -217 0 -151 -11 -192 -59 -216
-16 -9 -45 -16 -64 -16 -32 0 -37 -4 -61 -54 -23 -47 -111 -144 -121 -134 -2
2 1 25 7 52 5 26 7 68 3 92 l-6 44 -62 0 c-125 0 -147 35 -147 228 0 138 9
183 45 212 35 29 344 36 400 9z m-514 -520 c43 -15 97 -65 115 -106 18 -41 18
-114 0 -156 -40 -98 -180 -148 -265 -96 -29 18 -40 19 -75 10 -65 -16 -92 -18
-133 -11 l-38 6 31 17 c54 28 104 95 104 137 0 144 130 242 261 199z"/>
<path d="M4570 7080 c0 -313 0 -573 0 -577 0 -13 448 -15 540 -3 225 29 408
192 465 415 17 68 20 216 5 296 -27 146 -143 301 -277 372 -118 62 -154 67
-460 67 l-273 0 0 -570z"/>
<path d="M4200 6380 c-181 -5 -212 -8 -261 -28 -129 -51 -235 -144 -297 -259
-60 -113 -62 -134 -62 -598 l0 -420 35 -28 c80 -64 176 -232 198 -346 7 -36
17 -61 24 -61 7 0 37 11 66 24 l54 24 6 158 c3 94 12 181 21 214 35 123 136
283 216 340 l31 22 -5 -75 c-4 -67 -8 -80 -41 -122 -78 -103 -104 -183 -112
-342 -4 -84 -3 -123 5 -123 11 0 106 73 117 90 12 19 32 11 29 -12 -1 -13 -3
-48 -3 -78 l-1 -55 -75 -49 -75 -48 0 -2304 0 -2304 195 0 195 0 0 2485 c0
1367 -2 2485 -3 2485 -2 0 -20 -24 -40 -53 -20 -29 -49 -65 -64 -80 l-28 -26
3 94 3 95 65 105 64 105 0 105 0 105 -42 -17 c-24 -9 -53 -23 -65 -31 l-23
-14 0 65 0 65 65 24 65 23 0 422 c0 359 -2 423 -14 423 -8 0 -20 1 -28 3 -7 2
-105 0 -218 -3z"/>
<path d="M3580 4761 l0 -173 60 4 c33 2 65 9 71 15 25 25 -40 206 -105 292
l-26 35 0 -173z"/>
<path d="M3888 4528 l-58 -20 0 -2254 0 -2254 65 0 65 0 0 2275 c0 1251 -3
2275 -7 2274 -5 0 -34 -10 -65 -21z"/>
<path d="M3655 4473 c-16 -2 -40 -6 -52 -8 l-23 -5 0 -2230 0 -2230 70 0 70 0
0 2240 c0 2127 -1 2240 -17 2239 -10 -1 -31 -4 -48 -6z"/>
</g>
</svg>
